<svg width="12" height="7" viewBox="0 0 12 7" fill="none" xmlns="http://www.w3.org/2000/svg">
<path d="M0.221355 5.22058L5.22135 0.220578C5.29103 0.150658 5.37383 0.095181 5.46499 0.0573273C5.55615 0.0194731 5.65389 -1.33169e-05 5.7526 -1.33255e-05C5.85132 -1.33341e-05 5.94906 0.0194731 6.04022 0.0573273C6.13138 0.095181 6.21418 0.150658 6.28385 0.220578L11.2839 5.22058C11.4248 5.36147 11.5039 5.55257 11.5039 5.75183C11.5039 5.95109 11.4248 6.14218 11.2839 6.28308C11.143 6.42397 10.9519 6.50313 10.7526 6.50313C10.5533 6.50313 10.3623 6.42397 10.2214 6.28308L5.75198 1.8137L1.28261 6.2837C1.14171 6.4246 0.950614 6.50375 0.751356 6.50375C0.552098 6.50375 0.361002 6.4246 0.220106 6.2837C0.0792102 6.14281 5.33575e-05 5.95171 5.33401e-05 5.75245C5.33227e-05 5.5532 0.0792102 5.3621 0.220106 5.2212L0.221355 5.22058Z" fill="black"/>
</svg>
