<svg width="19" height="16" viewBox="0 0 19 16" fill="none" xmlns="http://www.w3.org/2000/svg">
<path d="M11.6709 0.331972L18.4209 7.08197C18.5258 7.18649 18.609 7.31068 18.6658 7.44743C18.7226 7.58417 18.7518 7.73078 18.7518 7.87885C18.7518 8.02691 18.7226 8.17352 18.6658 8.31027C18.609 8.44701 18.5258 8.57121 18.4209 8.67572L11.6709 15.4257C11.4596 15.6371 11.1729 15.7558 10.8741 15.7558C10.5752 15.7558 10.2885 15.6371 10.0772 15.4257C9.86584 15.2144 9.74711 14.9277 9.74711 14.6288C9.74711 14.33 9.86584 14.0433 10.0772 13.832L14.9063 9.00291L1.125 9.00291C0.826632 9.00291 0.540483 8.88438 0.329505 8.6734C0.118527 8.46243 9.03849e-08 8.17628 9.39429e-08 7.87791C9.75009e-08 7.57954 0.118527 7.29339 0.329505 7.08241C0.540483 6.87144 0.826632 6.75291 1.125 6.75291L14.9063 6.75291L10.0763 1.92385C9.86491 1.7125 9.74617 1.42586 9.74617 1.12697C9.74617 0.828087 9.86491 0.541443 10.0763 0.330098C10.2876 0.118754 10.5742 1.91996e-05 10.8731 1.92031e-05C11.172 1.92067e-05 11.4587 0.118754 11.67 0.330098L11.6709 0.331972Z" fill="white"/>
</svg>
