<svg width="21" height="21" viewBox="0 0 21 21" fill="none" xmlns="http://www.w3.org/2000/svg">
<path d="M20.4516 9.86063L11.1403 0.549383C10.9667 0.374635 10.7601 0.236091 10.5326 0.141785C10.305 0.0474796 10.061 -0.000710913 9.8147 7.92487e-06H1.12501C0.826639 7.92487e-06 0.540491 0.118534 0.329513 0.329513C0.118534 0.540491 7.92487e-06 0.826639 7.92487e-06 1.12501V9.8147C-0.000710913 10.061 0.0474796 10.305 0.141785 10.5326C0.236091 10.7601 0.374635 10.9667 0.549383 11.1403L9.86063 20.4516C10.2122 20.8031 10.6891 21.0005 11.1863 21.0005C11.6834 21.0005 12.1603 20.8031 12.5119 20.4516L20.4516 12.5119C20.8031 12.1603 21.0005 11.6834 21.0005 11.1863C21.0005 10.6891 20.8031 10.2122 20.4516 9.86063ZM11.1863 18.5953L2.25001 9.65626V2.25001H9.65626L18.5925 11.1863L11.1863 18.5953ZM6.75001 5.25001C6.75001 5.54668 6.66203 5.83669 6.49721 6.08336C6.33239 6.33004 6.09812 6.5223 5.82403 6.63583C5.54994 6.74936 5.24834 6.77906 4.95737 6.72119C4.6664 6.66331 4.39913 6.52045 4.18935 6.31067C3.97957 6.10089 3.83671 5.83361 3.77883 5.54264C3.72095 5.25167 3.75066 4.95007 3.86419 4.67598C3.97772 4.40189 4.16998 4.16763 4.41665 4.0028C4.66333 3.83798 4.95334 3.75001 5.25001 3.75001C5.64783 3.75001 6.02936 3.90804 6.31067 4.18935C6.59197 4.47065 6.75001 4.85218 6.75001 5.25001Z" fill="black" fill-opacity="0.4"/>
</svg>
