<svg width="21" height="6" viewBox="0 0 21 6" fill="none" xmlns="http://www.w3.org/2000/svg">
<path d="M12.75 2.625C12.75 3.14418 12.596 3.65169 12.3076 4.08337C12.0192 4.51505 11.6092 4.8515 11.1295 5.05018C10.6499 5.24886 10.1221 5.30085 9.61289 5.19956C9.10369 5.09828 8.63596 4.84827 8.26885 4.48116C7.90173 4.11404 7.65173 3.64631 7.55044 3.13711C7.44915 2.62791 7.50114 2.10011 7.69982 1.62046C7.8985 1.1408 8.23495 0.730831 8.66663 0.442392C9.09831 0.153953 9.60583 0 10.125 0C10.8212 0 11.4889 0.276562 11.9812 0.768845C12.4734 1.26113 12.75 1.92881 12.75 2.625ZM2.625 0C2.10583 0 1.59831 0.153953 1.16663 0.442392C0.73495 0.730831 0.398497 1.1408 0.199817 1.62046C0.00113737 2.10011 -0.0508464 2.62791 0.0504398 3.13711C0.151726 3.64631 0.401733 4.11404 0.768846 4.48116C1.13596 4.84827 1.60369 5.09828 2.11289 5.19956C2.62209 5.30085 3.14989 5.24886 3.62955 5.05018C4.1092 4.8515 4.51917 4.51505 4.80761 4.08337C5.09605 3.65169 5.25 3.14418 5.25 2.625C5.25 1.92881 4.97344 1.26113 4.48116 0.768845C3.98887 0.276562 3.32119 0 2.625 0ZM17.625 0C17.1058 0 16.5983 0.153953 16.1666 0.442392C15.735 0.730831 15.3985 1.1408 15.1998 1.62046C15.0011 2.10011 14.9492 2.62791 15.0504 3.13711C15.1517 3.64631 15.4017 4.11404 15.7688 4.48116C16.136 4.84827 16.6037 5.09828 17.1129 5.19956C17.6221 5.30085 18.1499 5.24886 18.6295 5.05018C19.1092 4.8515 19.5192 4.51505 19.8076 4.08337C20.096 3.65169 20.25 3.14418 20.25 2.625C20.25 2.28028 20.1821 1.93894 20.0502 1.62046C19.9183 1.30198 19.7249 1.0126 19.4812 0.768845C19.2374 0.525091 18.948 0.331735 18.6295 0.199816C18.3111 0.0678974 17.9697 0 17.625 0Z" fill="black" fill-opacity="0.4"/>
</svg>
